# xmcd
#
# Track frame offsets: 
#        150
#        13347
#        38831
#        59431
#        82561
#        110111
#        148444
#        188787
#        219931
#        246720
#        264675
#        280822
#        299725
#
# Disc length: 4374 seconds
#
# Revision: 0
# Processed by: cddbd v1.5.2PL0 Copyright (c) Steve Scherf et al.
# Submitted via: ExactAudioCopy v0.95b4
#
DISCID=d411140d
DTITLE=Eric Clapton - 2001-05-22 - Reptile In Memphis - CD1
DYEAR=2001
DGENRE=Blues
TTITLE0=Key To The Highway
TTITLE1=Reptile
TTITLE2=Tears In Heaven
TTITLE3=Bell Bottom Blues
TTITLE4=Change The World
TTITLE5=My Father's Eyes
TTITLE6=River Of Tears
TTITLE7=Going Down Slow
TTITLE8=She's Gone
TTITLE9=It's Allright
TTITLE10=Finally Got Myself Together
TTITLE11=Got You On My Mind
TTITLE12=Don't Let Me Be Lonely Tonight
EXTD=
EXTT0=
EXTT1=
EXTT2=
EXTT3=
EXTT4=
EXTT5=
EXTT6=
EXTT7=
EXTT8=
EXTT9=
EXTT10=
EXTT11=
EXTT12=
PLAYORDER=
